<svg xmlns="http://www.w3.org/2000/svg" width="546.387" height="243.484" viewBox="0 0 546.387 243.484">
  <g id="Group_115" data-name="Group 115" transform="translate(-17.892 -17.534)">
    <g id="Group_112" data-name="Group 112">
      <path id="Path_13" data-name="Path 13" d="M17.892,120.353v-.442c0-39.173,24.48-62.979,52.967-62.979,18.249,0,28.935,8.23,36.948,17.358V17.534h42.281V180H107.807V163.974c-8.237,10.019-18.7,18.7-36.724,18.7C42.6,182.673,17.892,158.859,17.892,120.353Zm90.582-.442v-.449c0-15.8-10.9-27.147-24.481-27.147s-24.7,11.128-24.7,27.147v.449c0,16.025,11.128,27.371,24.7,27.371S108.474,135.936,108.474,119.911Z" fill="#1a1818"/>
      <path id="Path_14" data-name="Path 14" d="M161.672,17.534h44.063v31.16H161.672Zm.891,42.064h42.281V180H162.563Z" fill="#1a1818"/>
      <path id="Path_15" data-name="Path 15" d="M217.3,59.6h42.281V76.065c7.788-10.012,18.916-19.133,35.833-19.133,16.026,0,28.262,7.121,34.717,19.582,10.462-12.019,22.7-19.582,40.281-19.582,25.6,0,41.173,16.018,41.173,44.063v79H369.309V114.571c0-13.134-6.455-20.032-16.475-20.032s-17.358,6.9-17.358,20.032V180H293.2V114.571c0-13.134-6.455-20.032-16.468-20.032s-17.141,6.9-17.141,20.032V180H217.3Z" fill="#1a1818"/>
      <path id="Path_16" data-name="Path 16" d="M417.386,120.353v-.442c0-35.167,25.146-62.979,60.755-62.979,41.614,0,60.755,30.486,60.755,65.87,0,2.673,0,5.788-.218,8.679H458.109c3.34,13.135,12.91,19.807,26.038,19.807,10.019,0,18.032-3.782,26.711-12.236l23.365,19.358c-11.57,14.692-28.262,24.48-52.3,24.48C444.09,182.89,417.386,157.743,417.386,120.353Zm81.9-10.454c-1.558-13.36-9.346-21.815-20.916-21.815-11.128,0-18.7,8.68-20.923,21.815Z" fill="#1a1818"/>
    </g>
    <g id="Group_113" data-name="Group 113">
      <path id="Path_17" data-name="Path 17" d="M521.987,46.526l1.7-2.576a9.318,9.318,0,0,0,5.436,2.042c1.634,0,2.575-.691,2.575-1.79v-.064c0-1.288-1.76-1.727-3.706-2.324-2.45-.692-5.182-1.7-5.182-4.869v-.064c0-3.141,2.606-5.056,5.9-5.056a11.5,11.5,0,0,1,6.1,1.885l-1.507,2.7a9.646,9.646,0,0,0-4.681-1.571c-1.478,0-2.325.691-2.325,1.665v.063c0,1.193,1.791,1.7,3.737,2.324,2.42.754,5.152,1.854,5.152,4.838v.063c0,3.487-2.7,5.215-6.157,5.215A11.66,11.66,0,0,1,521.987,46.526Z" fill="#1a1818"/>
      <path id="Path_18" data-name="Path 18" d="M539.053,32.107h3.8V34.62a5.947,5.947,0,0,1,5.059-2.858,5.217,5.217,0,0,1,4.932,2.921,6.772,6.772,0,0,1,5.622-2.921c3.614,0,5.812,2.293,5.812,6.345V48.694h-3.8V39.269c0-2.638-1.226-4.051-3.361-4.051-2.072,0-3.551,1.445-3.551,4.114v9.362h-3.8V39.239c0-2.576-1.256-4.021-3.361-4.021s-3.55,1.57-3.55,4.146v9.33h-3.8Z" fill="#1a1818"/>
    </g>
    <g id="Group_114" data-name="Group 114">
      <path id="Path_19" data-name="Path 19" d="M27.113,247.262l2.341-3.3a18.167,18.167,0,0,0,10.754,3.964c3.724,0,6.426-1.922,6.426-4.926v-.12c0-3.123-3.664-4.324-7.748-5.466-4.866-1.382-10.272-3.063-10.272-8.77v-.12c0-5.346,4.446-8.891,10.572-8.891a21.236,21.236,0,0,1,11.174,3.425l-2.1,3.484a17.556,17.556,0,0,0-9.191-3.005c-3.665,0-6.006,1.923-6.006,4.506v.12c0,2.943,3.844,4.085,7.988,5.346,4.806,1.441,9.972,3.305,9.972,8.891v.12c0,5.886-4.865,9.311-11.053,9.311A21.353,21.353,0,0,1,27.113,247.262Z" fill="#1dce81"/>
      <path id="Path_20" data-name="Path 20" d="M57.327,208.277h5.286v5.107H57.327Zm.3,11.894h4.626v31.056H57.628Z" fill="#1dce81"/>
      <path id="Path_21" data-name="Path 21" d="M70.6,220.171h4.626V225.4c2.043-3.063,4.805-5.886,10.032-5.886a10.547,10.547,0,0,1,9.97,6.187c2.223-3.424,5.528-6.187,10.934-6.187,7.148,0,11.533,4.806,11.533,12.5v19.222h-4.626V233.085c0-6.006-3-9.37-8.049-9.37-4.685,0-8.589,3.483-8.589,9.611v17.9H91.867V232.966c0-5.826-3.063-9.251-7.989-9.251s-8.65,4.085-8.65,9.791v17.721H70.6Z" fill="#1dce81"/>
      <path id="Path_22" data-name="Path 22" d="M125.329,220.171h4.625v6.247c2.524-3.724,6.188-6.908,11.894-6.908,7.449,0,14.837,5.886,14.837,16.1v.12c0,10.152-7.328,16.159-14.837,16.159-5.766,0-9.491-3.124-11.894-6.608v15.558h-4.625Zm26.61,15.618v-.12c0-7.329-5.045-12.014-10.932-12.014a11.58,11.58,0,0,0-11.233,11.954v.12c0,7.208,5.466,12.014,11.233,12.014C147.014,247.743,151.939,243.3,151.939,235.789Z" fill="#1dce81"/>
      <path id="Path_23" data-name="Path 23" d="M163.233,207.376h4.626v43.851h-4.626Z" fill="#1dce81"/>
      <path id="Path_24" data-name="Path 24" d="M189.9,247.923a12.851,12.851,0,0,0,9.791-4.385l2.884,2.583a16.033,16.033,0,0,1-12.8,5.827c-8.529,0-15.5-6.548-15.5-16.219,0-9.01,6.308-16.219,14.9-16.219,9.19,0,14.476,7.329,14.476,16.459,0,.421,0,.9-.06,1.622H178.971C179.633,244.139,184.438,247.923,189.9,247.923Zm9.07-14.056c-.54-5.647-3.785-10.453-9.911-10.453-5.347,0-9.43,4.446-10.092,10.453Z" fill="#1dce81"/>
      <path id="Path_25" data-name="Path 25" d="M224.986,220.171h4.625v6.247c2.524-3.724,6.188-6.908,11.894-6.908,7.449,0,14.836,5.886,14.836,16.1v.12c0,10.152-7.328,16.159-14.836,16.159-5.766,0-9.49-3.124-11.894-6.608v15.558h-4.625Zm26.61,15.618v-.12c0-7.329-5.044-12.014-10.932-12.014a11.58,11.58,0,0,0-11.233,11.954v.12c0,7.208,5.466,12.014,11.233,12.014C246.672,247.743,251.6,243.3,251.6,235.789Z" fill="#1dce81"/>
      <path id="Path_26" data-name="Path 26" d="M260.129,242.217v-.12c0-6.669,5.4-10.153,13.275-10.153a32.522,32.522,0,0,1,9.49,1.322V232.3c0-5.526-3.364-8.41-9.191-8.41a21.61,21.61,0,0,0-9.43,2.223l-1.382-3.785a25.47,25.47,0,0,1,11.293-2.643c4.384,0,7.809,1.2,10.032,3.425,2.161,2.162,3.243,5.165,3.243,9.13v18.982h-4.565V246.6a13.614,13.614,0,0,1-11.173,5.287C265.894,251.888,260.129,248.583,260.129,242.217Zm22.826-2.4V236.93a31.971,31.971,0,0,0-9.07-1.321c-5.768,0-9.07,2.523-9.07,6.247v.12c0,3.9,3.6,6.188,7.809,6.188C278.331,248.164,282.955,244.739,282.955,239.814Z" fill="#1dce81"/>
      <path id="Path_27" data-name="Path 27" d="M291.846,259.457l1.563-3.665a9.711,9.711,0,0,0,4.865,1.141c2.762,0,4.5-1.441,6.366-5.826l-14.116-30.936h5.108l11.293,25.89,9.97-25.89h4.926l-13.034,32.076c-2.645,6.428-5.648,8.771-10.334,8.771A14.132,14.132,0,0,1,291.846,259.457Z" fill="#1dce81"/>
      <path id="Path_28" data-name="Path 28" d="M326.75,220.171h4.625V225.4c2.041-3.063,4.806-5.886,10.032-5.886a10.545,10.545,0,0,1,9.97,6.187c2.223-3.424,5.528-6.187,10.932-6.187,7.149,0,11.534,4.806,11.534,12.5v19.222h-4.625V233.085c0-6.006-3-9.37-8.049-9.37-4.686,0-8.59,3.483-8.59,9.611v17.9h-4.565V232.966c0-5.826-3.065-9.251-7.989-9.251s-8.65,4.085-8.65,9.791v17.721H326.75Z" fill="#1dce81"/>
      <path id="Path_29" data-name="Path 29" d="M395.17,247.923a12.851,12.851,0,0,0,9.791-4.385l2.883,2.583a16.026,16.026,0,0,1-12.794,5.827c-8.531,0-15.5-6.548-15.5-16.219,0-9.01,6.307-16.219,14.9-16.219,9.19,0,14.477,7.329,14.477,16.459,0,.421,0,.9-.059,1.622H384.238C384.9,244.139,389.7,247.923,395.17,247.923Zm9.07-14.056c-.54-5.647-3.783-10.453-9.912-10.453-5.346,0-9.43,4.446-10.09,10.453Z" fill="#1dce81"/>
      <path id="Path_30" data-name="Path 30" d="M414.635,220.171h4.625v5.406a11.76,11.76,0,0,1,10.632-6.067c7.508,0,11.894,5.046,11.894,12.434v19.283h-4.627V233.085c0-5.766-3.123-9.37-8.589-9.37-5.346,0-9.31,3.9-9.31,9.731v17.781h-4.625Z" fill="#1dce81"/>
      <path id="Path_31" data-name="Path 31" d="M450.859,243V224.256h-4.325v-4.085h4.325V210.8h4.625v9.371h9.85v4.085h-9.85V242.4c0,3.784,2.1,5.166,5.225,5.166a9.722,9.722,0,0,0,4.5-1.082v3.964a11.623,11.623,0,0,1-5.587,1.323C454.642,251.768,450.859,249.3,450.859,243Z" fill="#1dce81"/>
      <path id="Path_32" data-name="Path 32" d="M468.518,247.262l2.343-3.3a18.159,18.159,0,0,0,10.751,3.964c3.724,0,6.428-1.922,6.428-4.926v-.12c0-3.123-3.663-4.324-7.748-5.466-4.865-1.382-10.272-3.063-10.272-8.77v-.12c0-5.346,4.445-8.891,10.571-8.891a21.219,21.219,0,0,1,11.173,3.425l-2.1,3.484a17.55,17.55,0,0,0-9.19-3.005c-3.663,0-6.006,1.923-6.006,4.506v.12c0,2.943,3.845,4.085,7.988,5.346,4.807,1.441,9.973,3.305,9.973,8.891v.12c0,5.886-4.867,9.311-11.055,9.311A21.355,21.355,0,0,1,468.518,247.262Z" fill="#1dce81"/>
    </g>
  </g>
</svg>
